<?xml version="1.0" standalone="no"?>
<!DOCTYPE svg PUBLIC "-//W3C//DTD SVG 20010904//EN"
 "http://www.w3.org/TR/2001/REC-SVG-20010904/DTD/svg10.dtd">
<svg version="1.0" xmlns="http://www.w3.org/2000/svg"
 width="543.000000pt" height="543.000000pt" viewBox="0 0 543.000000 543.000000"
 preserveAspectRatio="xMidYMid meet">
<metadata>
Created by potrace 1.14, written by Peter Selinger 2001-2017
</metadata>
<g transform="translate(0.000000,543.000000) scale(0.100000,-0.100000)"
fill="#000000" stroke="none">
<path d="M1350 5422 c-19 -1 -60 -7 -90 -13 -30 -6 -68 -13 -84 -16 -59 -10
-203 -66 -286 -110 -330 -177 -552 -482 -626 -859 -16 -82 -18 -192 -17 -1385
1 -1395 1 -1411 38 -1559 39 -154 133 -339 234 -460 202 -244 395 -344 646
-336 178 6 330 62 495 184 157 116 293 307 408 572 11 25 29 66 40 91 l20 46
-52 124 c-29 68 -92 216 -140 329 -49 113 -169 394 -269 625 -99 231 -188 438
-198 460 -10 22 -39 89 -64 150 -26 60 -55 127 -65 150 -125 278 -401 939
-404 967 -6 50 32 125 81 158 l37 25 397 0 397 0 38 -31 c31 -24 49 -56 92
-155 596 -1370 676 -1549 684 -1541 4 4 159 354 343 777 406 929 376 863 408
901 42 50 71 53 453 55 386 1 396 0 447 -60 31 -37 51 -103 42 -138 -4 -19
-227 -539 -290 -678 -39 -87 -455 -1047 -455 -1051 0 -3 -9 -26 -21 -51 -11
-25 -59 -134 -105 -242 -47 -108 -91 -209 -99 -226 -7 -16 -61 -140 -120 -275
-59 -135 -113 -258 -120 -275 -8 -16 -96 -219 -196 -450 -262 -606 -278 -637
-409 -767 -112 -111 -342 -256 -453 -283 -15 -4 -25 -11 -22 -15 3 -5 47 -18
98 -31 112 -27 370 -33 477 -11 312 65 579 232 755 471 l60 81 260 1 c143 1
274 3 290 4 197 18 409 97 581 216 157 109 323 307 402 479 36 76 79 208 88
265 3 22 7 42 9 45 14 23 18 313 17 1445 0 1418 2 1379 -57 1560 -143 438
-533 766 -985 830 -50 8 -2628 14 -2710 7z"/>
</g>
</svg>
